<svg aria-hidden="true" style="position: absolute; width: 0; height: 0; overflow: hidden;" version="1.1" xmlns="http://www.w3.org/2000/svg" xmlns:xlink="http://www.w3.org/1999/xlink">
<defs>
<symbol id="icon-arrow" viewBox="0 0 32 32">
<path d="M12 22.667h2.667l6.667-6.667-6.667-6.667h-2.667l6.667 6.667-6.667 6.667z"></path>
</symbol>
<symbol id="icon-facebook" viewBox="0 0 32 32">
<path d="M11.091 4.5c-3.634 0-6.591 2.957-6.591 6.591 0 0 0.006 5.332 0.007 9.822 0.001 3.633 2.957 6.587 6.59 6.587h5.903c0.276-0 0.5-0.224 0.5-0.5v0-10c-0-0.276-0.224-0.5-0.5-0.5h-2c-0.002-0-0.005-0-0.007-0-0.276 0-0.5 0.224-0.5 0.5s0.224 0.5 0.5 0.5c0.002 0 0.005-0 0.007-0h1.5v9h-5.403c-3.092 0-5.589-2.496-5.59-5.588-0.001-4.491-0.007-9.822-0.007-9.822 0.001-3.093 2.498-5.59 5.591-5.59h9.818c3.093 0 5.591 2.498 5.591 5.591v9.818c0 3.093-2.498 5.591-5.591 5.591h-0.409v-9h2c0.276-0 0.5-0.224 0.5-0.5v0-3c-0-0.276-0.224-0.5-0.5-0.5h-2v-1h2c0.276-0 0.5-0.224 0.5-0.5v0-2.5c-0-0.276-0.224-0.5-0.5-0.5h-3c-1.651 0-3 1.349-3 3v1.5h-1.5c-0.002-0-0.005-0-0.007-0-0.276 0-0.5 0.224-0.5 0.5s0.224 0.5 0.5 0.5c0.002 0 0.005-0 0.007-0h2c0.276-0 0.5-0.224 0.5-0.5v0-2c0-1.11 0.89-2 2-2h2.5v1.5h-2c-0.276 0-0.5 0.224-0.5 0.5v0 2c0 0.276 0.224 0.5 0.5 0.5h2v2h-2c-0.276 0-0.5 0.224-0.5 0.5v0 10c0 0.276 0.224 0.5 0.5 0.5h0.909c3.634 0 6.591-2.957 6.591-6.591v-9.818c0-3.634-2.957-6.591-6.591-6.591h-9.818z"></path>
</symbol>
<symbol id="icon-phone" viewBox="0 0 32 32">
<path d="M21.602 18.632c-1.467-0.133-2.267 1.867-3.333 2.4-1.733 0.933-4.933-2.4-4.933-2.4s-3.333-3.2-2.533-4.933c0.667-1.067 2.667-1.867 2.533-3.333-0.133-1.333-3.067-6.133-4.533-4.8-3.2 2.933-3.467 4.133-3.467 6.533-0.133 4.133 5.2 9.333 5.2 9.333 0.533 0.533 5.2 5.333 9.333 5.2 2.4 0 3.6-0.267 6.533-3.467 1.333-1.467-3.333-4.4-4.8-4.533z"></path>
</symbol>
<symbol id="icon-map" viewBox="0 0 32 32">
<path d="M15.875 2.66l-0.007 0c-5.826 0.071-10.528 4.816-10.528 10.659 0 2.254 0.7 4.345 1.87 6.031l0.003 0.008c0.047 0.095 0.105 0.183 0.17 0.262l0.177 0.217 0.038 0.049c0.133 0.167 0.268 0.332 0.374 0.457l6.999 8.496c0.245 0.296 0.614 0.484 1.028 0.484s0.784-0.189 1.030-0.487l6.816-8.299c0.271-0.296 0.527-0.608 0.764-0.932l0.142-0.17c0.069-0.081 0.128-0.17 0.179-0.274l-0.025 0.040c1.015-1.531 1.645-3.34 1.754-5.316l-0.001 0.027c0.011-0.194 0.016-0.39 0.016-0.587 0-5.893-4.777-10.669-10.669-10.669-0.046 0-0.093 0-0.132 0.001zM20 13.329c0 0.022 0.001 0.047 0.001 0.073 0 2.209-1.791 4-4 4s-4-1.791-4-4c0-0.026 0-0.051 0.001-0.077l-0 0.004c0.041-2.178 1.816-3.927 3.999-3.927s3.958 1.749 3.999 3.923l0 0.004z"></path>
</symbol>
<symbol id="icon-instagram" viewBox="0 0 34 34">
<path stroke-linejoin="round" stroke-linecap="round" stroke-miterlimit="4" stroke-width="2.6667" d="M22.667 2.667h-13.333c-3.682 0-6.667 2.985-6.667 6.667v13.333c0 3.682 2.985 6.667 6.667 6.667h13.333c3.682 0 6.667-2.985 6.667-6.667v-13.333c0-3.682-2.985-6.667-6.667-6.667z"></path>
<path stroke-linejoin="round" stroke-linecap="round" stroke-miterlimit="4" stroke-width="2.6667" d="M21.333 15.16c0.165 1.11-0.025 2.243-0.542 3.239s-1.334 1.803-2.336 2.307c-1.002 0.504-2.137 0.68-3.245 0.502s-2.131-0.701-2.924-1.494c-0.793-0.793-1.316-1.816-1.494-2.924s-0.003-2.243 0.502-3.245c0.504-1.002 1.312-1.819 2.308-2.336s2.129-0.706 3.239-0.542c1.132 0.168 2.18 0.695 2.989 1.504s1.337 1.857 1.504 2.989z"></path>
<path stroke-linejoin="round" stroke-linecap="round" stroke-miterlimit="4" stroke-width="2.6667" d="M23.333 8.667h0.013"></path>
</symbol>
<symbol id="icon-close" viewBox="0 0 32 32">
<path fill="#fff" style="fill: var(--color1, #fff)" d="M23.884 6.706l-7.884 7.884-7.884-7.884c-0.19-0.174-0.439-0.267-0.696-0.261s-0.502 0.11-0.684 0.292c-0.182 0.182-0.286 0.427-0.292 0.684s0.088 0.506 0.261 0.696l7.88 7.884-7.882 7.882c-0.096 0.092-0.173 0.202-0.226 0.324s-0.081 0.253-0.083 0.386 0.023 0.265 0.073 0.388c0.050 0.123 0.124 0.235 0.218 0.329s0.206 0.169 0.329 0.219 0.255 0.075 0.388 0.074c0.133-0.002 0.264-0.029 0.386-0.082s0.232-0.13 0.324-0.226l7.886-7.882 7.884 7.884c0.19 0.174 0.439 0.267 0.696 0.262s0.502-0.11 0.684-0.292c0.182-0.182 0.286-0.427 0.292-0.684s-0.088-0.506-0.262-0.696l-7.884-7.884 7.884-7.886c0.096-0.092 0.173-0.202 0.226-0.324s0.081-0.253 0.083-0.386c0.002-0.133-0.023-0.265-0.073-0.388s-0.124-0.235-0.218-0.329c-0.094-0.094-0.206-0.169-0.329-0.219s-0.255-0.075-0.388-0.074-0.264 0.029-0.386 0.082c-0.122 0.053-0.232 0.13-0.324 0.226v0.002z"></path>
</symbol>
<symbol id="icon-burger" viewBox="0 0 52 32">
<path stroke-linejoin="miter" stroke-linecap="round" stroke-miterlimit="4" stroke-width="4" d="M2 2h48"></path>
<path stroke-linejoin="miter" stroke-linecap="round" stroke-miterlimit="4" stroke-width="4" d="M2 16h48"></path>
<path stroke-linejoin="miter" stroke-linecap="round" stroke-miterlimit="4" stroke-width="4" d="M2 30h48"></path>
</symbol>
</defs>
</svg>
