<svg xmlns="http://www.w3.org/2000/svg" aria-hidden="true" style="position:absolute;width:0;height:0;overflow:hidden"><defs><symbol id="icon-arrow" viewBox="0 0 32 32"><path d="M12 22.667h2.667L21.334 16l-6.667-6.667H12L18.667 16 12 22.667z"/></symbol><symbol id="icon-facebook" viewBox="0 0 32 32"><path d="M11.091 4.5A6.599 6.599 0 0 0 4.5 11.091s.006 5.332.007 9.822a6.596 6.596 0 0 0 6.59 6.587H17a.5.5 0 0 0 .5-.5V17a.5.5 0 0 0-.5-.5h-2.007a.5.5 0 0 0 0 1H16.5v9h-5.403a5.583 5.583 0 0 1-5.59-5.588C5.506 16.421 5.5 11.09 5.5 11.09a5.584 5.584 0 0 1 5.591-5.59h9.818a5.584 5.584 0 0 1 5.591 5.591v9.818a5.584 5.584 0 0 1-5.591 5.591H20.5v-9h2a.5.5 0 0 0 .5-.5v-3a.5.5 0 0 0-.5-.5h-2v-1h2a.5.5 0 0 0 .5-.5V9.5a.5.5 0 0 0-.5-.5h-3c-1.651 0-3 1.349-3 3v1.5h-1.507a.5.5 0 0 0 0 1H17a.5.5 0 0 0 .5-.5v-2c0-1.11.89-2 2-2H22v1.5h-2a.5.5 0 0 0-.5.5v2a.5.5 0 0 0 .5.5h2v2h-2a.5.5 0 0 0-.5.5v10a.5.5 0 0 0 .5.5h.909a6.599 6.599 0 0 0 6.591-6.591v-9.818A6.599 6.599 0 0 0 20.909 4.5h-9.818z"/></symbol><symbol id="icon-phone" viewBox="0 0 32 32"><path d="M21.602 18.632c-1.467-.133-2.267 1.867-3.333 2.4-1.733.933-4.933-2.4-4.933-2.4s-3.333-3.2-2.533-4.933c.667-1.067 2.667-1.867 2.533-3.333-.133-1.333-3.067-6.133-4.533-4.8-3.2 2.933-3.467 4.133-3.467 6.533-.133 4.133 5.2 9.333 5.2 9.333.533.533 5.2 5.333 9.333 5.2 2.4 0 3.6-.267 6.533-3.467 1.333-1.467-3.333-4.4-4.8-4.533z"/></symbol><symbol id="icon-map" viewBox="0 0 32 32"><path d="M15.875 2.66h-.007C10.042 2.731 5.34 7.476 5.34 13.319c0 2.254.7 4.345 1.87 6.031l.003.008c.047.095.105.183.17.262l.177.217.038.049c.133.167.268.332.374.457l6.999 8.496a1.33 1.33 0 0 0 2.058-.003l6.816-8.299a11 11 0 0 0 .764-.932l.142-.17c.069-.081.128-.17.179-.274l-.025.04a10.631 10.631 0 0 0 1.754-5.316l-.001.027c.011-.194.016-.39.016-.587 0-5.893-4.777-10.669-10.669-10.669l-.132.001zM20 13.329l.001.073a4 4 0 0 1-8 0l.001-.077v.004A4 4 0 0 1 20 13.325v.004z"/></symbol><symbol id="icon-instagram" viewBox="0 0 34 34"><path stroke-linecap="round" stroke-linejoin="round" stroke-width="2.667" d="M22.667 2.667H9.334a6.667 6.667 0 0 0-6.667 6.667v13.333a6.667 6.667 0 0 0 6.667 6.667h13.333a6.667 6.667 0 0 0 6.667-6.667V9.334a6.667 6.667 0 0 0-6.667-6.667z"/><path stroke-linecap="round" stroke-linejoin="round" stroke-width="2.667" d="M21.333 15.16a5.329 5.329 0 0 1-2.878 5.546 5.337 5.337 0 0 1-6.169-.992 5.33 5.33 0 0 1 1.316-8.505 5.336 5.336 0 0 1 6.228.962 5.328 5.328 0 0 1 1.504 2.989zM23.333 8.667h.013"/></symbol><symbol id="icon-close" viewBox="0 0 32 32"><path fill="#fff" d="M23.884 6.706 16 14.59 8.116 6.706a.995.995 0 0 0-1.38.031 1 1 0 0 0-.031 1.38l7.88 7.884-7.882 7.882a1.002 1.002 0 0 0-.018 1.427.998.998 0 0 0 1.427-.015l7.886-7.882 7.884 7.884a1 1 0 0 0 1.38-.03 1 1 0 0 0 .03-1.38l-7.884-7.884 7.884-7.886a1.002 1.002 0 0 0 .018-1.427.998.998 0 0 0-1.427.015v.002z" style="fill:var(--color1, #fff)"/></symbol><symbol id="icon-burger" viewBox="0 0 52 32"><path fill="none" stroke="#fff" stroke-linecap="round" stroke-width="4" d="M2 2h48M2 16h48M2 30h48" style="stroke:var(--color1, #fff)"/></symbol></defs></svg>